<svg xmlns="http://www.w3.org/2000/svg" viewBox="0 0 400 400">
  <path d="M 0.00,0.00 C 0.00,0.00 400.00,0.00 400.00,0.00 400.00,0.00 400.00,400.00 400.00,400.00 400.00,400.00 0.00,400.00 0.00,400.00 0.00,400.00 0.00,0.00 0.00,0.00 Z M 271.00,51.00 C 271.00,51.00 146.00,51.00 146.00,51.00 146.00,51.00 131.00,50.00 131.00,50.00 131.00,50.00 50.00,50.00 50.00,50.00 50.00,50.00 50.00,179.00 50.00,179.00 50.00,179.00 50.00,244.00 50.00,244.00 50.00,244.00 52.00,259.00 52.00,259.00 52.00,259.00 52.00,348.00 52.00,348.00 52.00,348.00 143.00,348.00 143.00,348.00 143.00,348.00 158.00,349.00 158.00,349.00 158.00,349.00 244.00,349.00 244.00,349.00 244.00,349.00 254.00,348.04 254.00,348.04 254.00,348.04 271.00,348.04 271.00,348.04 271.00,348.04 271.00,51.00 271.00,51.00 Z M 349.00,51.00 C 349.00,51.00 300.00,51.00 300.00,51.00 300.00,51.00 300.00,348.00 300.00,348.00 300.00,348.00 348.00,348.00 348.00,348.00 348.00,348.00 348.00,257.00 348.00,257.00 348.00,257.00 349.00,242.00 349.00,242.00 349.00,242.00 349.00,51.00 349.00,51.00 Z" />
</svg>
